IKResults
version=1
nRows=16
nColumns=44
inDegrees=yes

Units are S.I. units (second, meters, Newtons, ...)
Angles are in degrees.

endheader
time	ground_spine_rot_x	ground_spine_rot_y	ground_spine_rot_z	ground_spine_tx	ground_spine_ty	ground_spine_tz	clav_prot	clav_elev	scapula_abduction	scapula_elevation	scapula_upward_rot	scapula_winging	plane_elv	shoulder_elv	axial_rot	elbow_flexion	pro_sup	clav_prot_l	clav_elev_l	pitch2	roll2	yaw2	aux7jnt_r3	aux7jnt_r1	aux7jnt_r2	aux6jnt_r3	aux6jnt_r1	aux6jnt_r2	aux5jnt_r3	aux5jnt_r1	aux5jnt_r2	aux4jnt_r3	aux4jnt_r1	aux4jnt_r2	aux3jnt_r3	aux3jnt_r1	aux3jnt_r2	pitch1	roll1	yaw1	aux1jnt_r3	aux1jnt_r1	aux1jnt_r2
     12.44000000	      1.27983644	     -0.66434887	     -2.91393018	     -0.83625499	      1.09067129	      0.90950428	    -22.36776416	     -1.21927746	      8.24928383	    -15.79825701	     11.99692438	     17.08843752	    -65.67985985	     36.48283940	     52.72463672	      0.00000000	     34.32000000	     30.42326055	     -1.16071730	      0.22892782	     -0.04634074	      0.00902286	      2.45280594	     -0.36375231	      0.09719070	      2.88564698	     -0.41685550	      0.11321676	      2.88564698	     -0.57350738	      0.11321676	      2.16423523	     -0.57350738	      0.11321676	      1.44282349	     -0.52040571	      0.04859535	     -0.15281880	      0.03271713	     -0.01215680	     -4.86826261	      0.93727686	     -0.07731535
     12.45000000	      1.27566713	     -0.70234343	     -2.92302267	     -0.83627477	      1.09069813	      0.90952772	    -22.40262029	     -1.31950355	      8.23014244	    -15.89602034	     11.99872027	     17.13987278	    -66.07026781	     36.54333231	     52.63214147	      0.00000000	     34.32000000	     30.42326055	     -1.16071730	      0.22857372	     -0.04622681	      0.00973764	      2.44901201	     -0.36285805	      0.10488999	      2.88118354	     -0.41583068	      0.12218561	      2.88118354	     -0.57209744	      0.12218561	      2.16088765	     -0.57209744	      0.12218561	      1.44059177	     -0.51912632	      0.05244499	     -0.15367671	      0.03318728	     -0.01160798	     -4.89559249	      0.95074548	     -0.07382494
     12.46000000	      1.26946041	     -0.70656923	     -2.90657431	     -0.83622553	      1.09069793	      0.90951060	    -22.39135102	     -1.28469759	      8.23554816	    -15.86217938	     11.99807790	     17.12288306	    -65.23339185	     36.51705373	     52.49277900	      0.00000000	     34.32000000	     30.42326055	     -1.16071730	      0.21639247	     -0.03648214	      0.00864621	      2.31849821	     -0.28636707	      0.09313359	      2.72763827	     -0.32817300	      0.10849066	      2.72763827	     -0.45149851	      0.10849066	      2.04572870	     -0.45149851	      0.10849066	      1.36381913	     -0.40969378	      0.04656680	     -0.13843275	      0.01837407	     -0.01250329	     -4.40997425	      0.52637829	     -0.07951900
     12.47000000	      1.30932495	     -0.69365126	     -2.98492576	     -0.83657498	      1.09062235	      0.90927405	    -22.52184046	     -1.23358162	      8.00776041	    -15.82859803	     11.99930154	     17.21816664	    -65.01550772	     36.31896843	     49.15592343	      0.00000000	     34.32000000	     30.42326055	     -1.16071730	      0.23346596	     -0.05113004	      0.00888440	      2.50142909	     -0.40134601	      0.09569921	      2.94285054	     -0.45993739	      0.11147933	      2.94285054	     -0.63277920	      0.11147933	      2.20713790	     -0.63277920	      0.11147933	      1.47142527	     -0.57418949	      0.04784960	     -0.16031503	      0.03951600	     -0.01073721	     -5.10706583	      1.13205001	     -0.06828698
     12.48000000	      1.26023684	     -0.70932472	     -2.96593980	     -0.83639912	      1.09062985	      0.90955266	    -22.41574597	     -1.36082316	      8.22388143	    -15.93602473	     11.99865181	     17.16076173	    -66.09783492	     36.60624270	     50.35240899	      0.00000000	     34.32000000	     30.42326055	     -1.16071730	      0.22947563	     -0.04437289	      0.00918265	      2.45867542	     -0.34830564	      0.09891190	      2.89255223	     -0.39915380	      0.11522177	      2.89255223	     -0.54915349	      0.11522177	      2.16941417	     -0.54915349	      0.11522177	      1.44627611	     -0.49830678	      0.04945595	     -0.15637396	      0.03193750	     -0.01197539	     -4.98151745	      0.91494186	     -0.07616161
     12.49000000	      1.24985111	     -0.72356085	     -2.98119346	     -0.83652189	      1.09058459	      0.90961067	    -22.41453477	     -1.38188238	      8.23362351	    -15.95565662	     11.99897858	     17.16461325	    -65.77974633	     36.55177540	     49.69396811	      0.00000000	     34.32000000	     30.42326055	     -1.16071730	      0.22763158	     -0.04408235	      0.00920753	      2.43891768	     -0.34602509	      0.09917983	      2.86930788	     -0.39654033	      0.11553389	      2.86930788	     -0.54555789	      0.11553389	      2.15198091	     -0.54555789	      0.11553389	      1.43465394	     -0.49504410	      0.04958992	     -0.15454317	      0.03238266	     -0.01173657	     -4.92319497	      0.92769479	     -0.07464273
     12.50000000	      1.24511002	     -0.72971497	     -2.96731129	     -0.83636202	      1.09061235	      0.90961945	    -22.35404020	     -1.38418740	      8.33144982	    -15.95123471	     11.99850919	     17.11531702	    -66.38387516	     36.65362559	     52.29751862	      0.00000000	     34.32000000	     30.42326055	     -1.16071730	      0.22627089	     -0.04250917	      0.00890034	      2.42433879	     -0.33367639	      0.09587097	      2.85215630	     -0.38238887	      0.11167942	      2.85215630	     -0.52608840	      0.11167942	      2.13911722	     -0.52608840	      0.11167942	      1.42607815	     -0.47737731	      0.04793549	     -0.15384007	      0.03051154	     -0.01159313	     -4.90079661	      0.87409116	     -0.07373046
     12.51000000	      1.25674823	     -0.74673762	     -2.96938741	     -0.83642422	      1.09059291	      0.90950573	    -22.30475464	     -1.27610523	      8.37258708	    -15.84520284	     11.99875180	     17.04911906	    -65.36601352	     36.59873080	     51.18102930	      0.00000000	     34.32000000	     30.42326055	     -1.16071730	      0.21843988	     -0.04107931	      0.00830530	      2.34043481	     -0.32245262	      0.08946138	      2.75344597	     -0.36952658	      0.10421293	      2.75344597	     -0.50839253	      0.10421293	      2.06508448	     -0.50839253	      0.10421293	      1.37672299	     -0.46131992	      0.04473069	     -0.14462103	      0.02804155	     -0.01103240	     -4.60711086	      0.80333137	     -0.07016433
     12.52000000	      1.26181100	     -0.75283235	     -2.93112386	     -0.83626465	      1.09058589	      0.90940915	    -22.27639709	     -1.22486559	      8.39928347	    -15.79410874	     11.99784650	     17.01395394	    -64.59163796	     36.52081149	     50.15994528	      0.00000000	     34.32000000	     30.42326055	     -1.16071730	      0.21050432	     -0.03900326	      0.00755325	      2.25541068	     -0.30615671	      0.08136060	      2.65341783	     -0.35085167	      0.09477639	      2.65341783	     -0.48269969	      0.09477639	      1.99006337	     -0.48269969	      0.09477639	      1.32670891	     -0.43800601	      0.04068030	     -0.13842605	      0.02515805	     -0.01083346	     -4.40976088	      0.72072506	     -0.06889912
     12.53000000	      1.26087627	     -0.75631141	     -3.03591753	     -0.83676853	      1.09051871	      0.90946712	    -22.35753085	     -1.36685700	      8.32023065	    -15.93562143	     11.99911539	     17.11396937	    -66.20260137	     36.59332799	     53.36318273	      0.00000000	     34.32000000	     30.42326055	     -1.16071730	      0.22573903	     -0.04374603	      0.01048378	      2.41864022	     -0.34338513	      0.11292715	      2.84545211	     -0.39351496	      0.13154804	      2.84545211	     -0.54139560	      0.13154804	      2.13408908	     -0.54139560	      0.13154804	      1.42272606	     -0.49126720	      0.05646358	     -0.15467974	      0.03197558	     -0.01294680	     -4.92754536	      0.91603285	     -0.08233965
     12.54000000	      1.26245427	     -0.71524577	     -3.01747383	     -0.83658521	      1.09052252	      0.90942291	    -22.44586440	     -1.36312494	      8.17610202	    -15.94133945	     11.99850567	     17.18622963	    -66.21351271	     36.54706145	     54.15986434	      0.00000000	     34.32000000	     30.42326055	     -1.16071730	      0.22471833	     -0.04359526	      0.01215663	      2.40770419	     -0.34220168	      0.13094642	      2.83258622	     -0.39215874	      0.15253856	      2.83258622	     -0.53952972	      0.15253856	      2.12443967	     -0.53952972	      0.15253856	      1.41629311	     -0.48957409	      0.06547321	     -0.15533762	      0.03139863	     -0.01552087	     -4.94850318	      0.89950456	     -0.09871032
     12.55000000	      1.25543634	     -0.75201379	     -3.03302982	     -0.83667812	      1.09051282	      0.90948397	    -22.42033301	     -1.41981515	      8.23721765	    -15.99148398	     11.99826462	     17.17859638	    -65.72676261	     36.47958561	     53.27878034	      0.00000000	     34.32000000	     30.42326055	     -1.16071730	      0.22292803	     -0.04656574	      0.01253553	      2.38852233	     -0.36551846	      0.13502780	      2.81001938	     -0.41887948	      0.15729293	      2.81001938	     -0.57629196	      0.15729293	      2.10751454	     -0.57629196	      0.15729293	      1.40500969	     -0.52293247	      0.06751390	     -0.15371113	      0.03706558	     -0.01423217	     -4.89668916	      1.06185061	     -0.09051438
     12.56000000	      1.26110258	     -0.71904104	     -3.04347754	     -0.83670765	      1.09051510	      0.90940107	    -22.44789437	     -1.38961003	      8.18222218	    -15.96628227	     11.99852345	     17.19408376	    -66.21816959	     36.55572401	     53.20642950	      0.00000000	     34.32000000	     30.42326055	     -1.16071730	      0.22382517	     -0.04328544	      0.01240304	      2.39813453	     -0.33976968	      0.13360063	      2.82132782	     -0.38937170	      0.15563043	      2.82132782	     -0.53569533	      0.15563043	      2.11599587	     -0.53569533	      0.15563043	      1.41066391	     -0.48609472	      0.06680031	     -0.15610242	      0.03089365	     -0.01556912	     -4.97286703	      0.88503788	     -0.09901717
     12.57000000	      1.26685719	     -0.72842101	     -3.00868700	     -0.83653431	      1.09050377	      0.90931028	    -22.39599459	     -1.30145402	      8.23399067	    -15.87830226	     11.99804389	     17.13065050	    -65.33101842	     36.50142916	     51.96019911	      0.00000000	     34.32000000	     30.42326055	     -1.16071730	      0.21602668	     -0.04147306	      0.01142600	      2.31457909	     -0.32554341	      0.12307638	      2.72302755	     -0.37306858	      0.14337081	      2.72302755	     -0.51326560	      0.14337081	      2.04227066	     -0.51326560	      0.14337081	      1.36151377	     -0.46574179	      0.06153819	     -0.14946710	      0.02855612	     -0.01500287	     -4.76148932	      0.81807261	     -0.09541588
     12.58000000	      1.27687742	     -0.70652945	     -3.05959545	     -0.83678669	      1.09048657	      0.90925282	    -22.46880590	     -1.38468509	      8.14669453	    -15.96388019	     11.99844294	     17.21024864	    -66.19841705	     36.55516607	     54.15778760	      0.00000000	     34.32000000	     30.42326055	     -1.16071730	      0.22166382	     -0.04376318	      0.01538253	      2.37497718	     -0.34351974	      0.16569457	      2.79408395	     -0.39366923	      0.19301644	      2.79408395	     -0.54160784	      0.19301644	      2.09556296	     -0.54160784	      0.19301644	      1.39704198	     -0.49145980	      0.08284729	     -0.15586904	      0.03125791	     -0.01851433	     -4.96543221	      0.89547326	     -0.11774824
     12.59000000	      1.26135113	     -0.75729379	     -3.05442529	     -0.83676139	      1.09049898	      0.90938295	    -22.45195576	     -1.45529762	      8.19890480	    -16.02796993	     11.99817561	     17.21315503	    -65.65828084	     36.48298201	     53.23454626	      0.00000000	     34.32000000	     30.42326055	     -1.16071730	      0.21845892	     -0.04645893	      0.01608559	      2.34063887	     -0.36468009	      0.17326765	      2.75368604	     -0.41791871	      0.20183827	      2.75368604	     -0.57497015	      0.20183827	      2.06526453	     -0.57497015	      0.20183827	      1.37684302	     -0.52173304	      0.08663383	     -0.15351951	      0.03659513	     -0.01638828	     -4.89058478	      1.04837325	     -0.10422687
